<?xml version="1.0" encoding="iso-8859-1"?>
<!-- Generator: Adobe Illustrator 19.0.0, SVG Export Plug-In . SVG Version: 6.00 Build 0)  -->
<svg version="1.1" id="Capa_1" xmlns="http://www.w3.org/2000/svg" xmlns:xlink="http://www.w3.org/1999/xlink" x="0px" y="0px"
	 viewBox="0 0 511 511" style="enable-background:new 0 0 511 511;" xml:space="preserve">
<path d="M455.5,200c-14.785,0-27.216,10.241-30.591,24h-2.086c-1.796-40.539-18.063-77.377-43.757-105.46l1.527-1.527
	c4.999,3.03,10.662,4.551,16.328,4.551c8.066,0,16.133-3.07,22.274-9.211c12.282-12.282,12.282-32.266,0-44.548
	c-12.282-12.282-32.266-12.282-44.548,0c-10.455,10.454-12.004,26.487-4.66,38.602l-1.527,1.527
	C340.377,82.239,303.539,65.972,263,64.176v-2.086c13.759-3.374,24-15.806,24-30.591C287,14.131,272.869,0,255.5,0
	S224,14.131,224,31.5c0,14.785,10.241,27.216,24,30.591v2.086c-40.539,1.796-77.377,18.063-105.46,43.757l-1.527-1.527
	c7.344-12.115,5.794-28.147-4.66-38.602c-12.282-12.282-32.266-12.282-44.548,0c-12.282,12.282-12.282,32.266,0,44.548
	c6.141,6.141,14.208,9.211,22.274,9.211c5.666,0,11.329-1.521,16.328-4.551l1.527,1.527C106.239,146.623,89.972,183.461,88.176,224
	h-2.086c-3.374-13.759-15.806-24-30.591-24C38.131,200,24,214.131,24,231.5S38.131,263,55.5,263c14.785,0,27.216-10.241,30.591-24
	h2.086c1.796,40.539,18.063,77.377,43.757,105.46l-1.527,1.527c-12.115-7.344-28.147-5.794-38.602,4.66
	c-12.282,12.282-12.282,32.266,0,44.548c6.141,6.141,14.208,9.211,22.274,9.211s16.133-3.07,22.274-9.211
	c10.455-10.454,12.004-26.487,4.66-38.602l1.527-1.527c16.095,14.726,35.064,26.356,55.959,33.941L185.113,472H159.5
	c-8.547,0-15.5,6.953-15.5,15.5v16c0,4.142,3.358,7.5,7.5,7.5h208c4.142,0,7.5-3.358,7.5-7.5v-16c0-8.547-6.953-15.5-15.5-15.5
	h-25.612l-13.386-82.993c20.894-7.585,39.864-19.215,55.958-33.94l1.527,1.527c-7.344,12.115-5.794,28.147,4.66,38.602
	c6.141,6.141,14.208,9.211,22.274,9.211s16.133-3.07,22.274-9.211c12.282-12.282,12.282-32.266,0-44.548
	c-10.455-10.455-26.486-12.004-38.602-4.66l-1.527-1.527c25.694-28.083,41.962-64.921,43.757-105.46h2.086
	c3.374,13.759,15.806,24,30.591,24c17.369,0,31.5-14.131,31.5-31.5S472.869,200,455.5,200z M407.814,224h-17.027
	c-1.683-30.781-13.694-59.839-34.32-82.86l11.989-11.989C391.446,154.5,406.042,187.594,407.814,224z M255.5,415
	c9.098,0,16.5,7.402,16.5,16.5s-7.402,16.5-16.5,16.5s-16.5-7.402-16.5-16.5S246.402,415,255.5,415z M165.16,311.233
	c-17.821-20.165-28.273-45.444-29.922-72.233h87.455l-2.827,17.527L165.16,311.233z M272,231.5c0,9.098-7.402,16.5-16.5,16.5
	s-16.5-7.402-16.5-16.5s7.402-16.5,16.5-16.5S272,222.402,272,231.5z M248,200.909c-3.152,0.773-6.123,2.015-8.825,3.659
	L175.806,141.2c19.503-17.232,44.605-28.257,72.194-29.96V200.909z M228.569,215.175c-1.644,2.702-2.886,5.672-3.659,8.825H135.24
	c1.703-27.588,12.728-52.691,29.96-72.194L228.569,215.175z M239.175,258.431c2.702,1.644,5.672,2.886,8.825,3.659v89.67
	c-9.356-0.582-18.589-2.242-27.503-4.94l13.406-83.117L239.175,258.431z M248,366.777v17.037
	c-11.238-0.547-22.157-2.323-32.634-5.184l2.726-16.9C227.809,364.514,237.843,366.215,248,366.777z M263,366.789
	c10.317-0.566,20.33-2.289,29.911-5.045l2.724,16.886c-10.477,2.861-21.396,4.637-32.634,5.184V366.789z M263,351.76v-89.669
	c3.152-0.773,6.123-2.015,8.825-3.659l5.273,5.273l13.404,83.106C281.714,349.482,272.505,351.173,263,351.76z M295.213,281.82
	l39.98,39.98c-9.026,7.975-19.248,14.625-30.365,19.633L295.213,281.82z M291.134,256.527L288.307,239h87.453
	c-1.703,27.588-12.728,52.691-29.96,72.194L291.134,256.527z M286.091,224c-0.773-3.152-2.015-6.123-3.659-8.825l63.409-63.409
	c17.821,20.165,28.273,45.443,29.922,72.233H286.091z M385.254,78.411c3.217-3.217,7.442-4.825,11.667-4.825
	s8.451,1.608,11.667,4.825c6.433,6.434,6.433,16.901,0,23.335c-6.434,6.434-16.901,6.434-23.335,0
	C378.821,95.313,378.821,84.845,385.254,78.411z M357.849,118.544l-86.025,86.025c-2.702-1.644-5.672-2.886-8.825-3.659v-89.67
	c18.574,1.155,36.667,6.579,52.734,15.871c3.586,2.073,8.174,0.848,10.248-2.738c2.073-3.586,0.848-8.174-2.738-10.248
	c-18.346-10.61-39.033-16.728-60.244-17.902V79.186C299.406,80.958,332.5,95.554,357.849,118.544z M239,31.5
	c0-9.098,7.402-16.5,16.5-16.5S272,22.402,272,31.5S264.598,48,255.5,48S239,40.598,239,31.5z M248,79.186v17.025
	c-31.721,1.739-60.567,14.44-82.813,34.369l-12.036-12.036C178.5,95.554,211.594,80.958,248,79.186z M102.411,101.746
	c-6.433-6.434-6.433-16.901,0-23.335c3.217-3.217,7.442-4.825,11.667-4.825s8.451,1.608,11.667,4.825
	c6.433,6.434,6.433,16.901,0,23.335C119.312,108.18,108.845,108.18,102.411,101.746z M142.544,129.151l12.036,12.036
	c-19.929,22.246-32.63,51.092-34.369,82.813h-17.025C104.958,187.594,119.554,154.5,142.544,129.151z M55.5,248
	c-9.098,0-16.5-7.402-16.5-16.5S46.402,215,55.5,215S72,222.402,72,231.5S64.598,248,55.5,248z M103.186,239h17.027
	c1.683,30.78,13.694,59.838,34.32,82.861l-11.989,11.989C119.554,308.5,104.958,275.406,103.186,239z M125.746,384.589
	c-6.434,6.434-16.901,6.434-23.335,0c-6.433-6.434-6.433-16.901,0-23.335c3.217-3.217,7.442-4.825,11.667-4.825
	s8.451,1.608,11.667,4.825C132.179,367.688,132.179,378.155,125.746,384.589z M153.151,344.456l62.636-62.636l-9.619,59.64
	c-3.719-1.667-7.358-3.521-10.897-5.567c-3.585-2.073-8.173-0.849-10.247,2.738c-2.074,3.585-0.848,8.173,2.738,10.247
	c5.143,2.974,10.471,5.596,15.942,7.856l-2.769,17.165C183.177,367.072,167.006,357.021,153.151,344.456z M352,487.5v8.5H159v-8.5
	c0-0.276,0.224-0.5,0.5-0.5h192C351.776,487,352,487.224,352,487.5z M310.694,472H200.307l12.658-78.479
	c11.263,2.959,22.986,4.769,35.036,5.303v2.086c-13.759,3.374-24,15.806-24,30.591c0,17.369,14.131,31.5,31.5,31.5
	s31.5-14.131,31.5-31.5c0-14.785-10.241-27.216-24-30.591v-2.086c12.05-0.534,23.773-2.343,35.036-5.303L310.694,472z
	 M310.065,373.899l-2.774-17.196c14.219-5.904,27.222-14.16,38.522-24.284l12.036,12.036
	C343.995,357.021,327.823,367.072,310.065,373.899z M408.589,361.254c6.433,6.434,6.433,16.901,0,23.335
	c-6.434,6.434-16.901,6.434-23.335,0c-6.433-6.434-6.433-16.901,0-23.335c3.217-3.217,7.442-4.825,11.667-4.825
	S405.372,358.037,408.589,361.254z M368.456,333.849l-12.036-12.036c19.929-22.246,32.63-51.092,34.369-82.813h17.025
	C406.042,275.406,391.446,308.5,368.456,333.849z M455.5,248c-9.098,0-16.5-7.402-16.5-16.5s7.402-16.5,16.5-16.5
	s16.5,7.402,16.5,16.5S464.598,248,455.5,248z"/>
<g>
</g>
<g>
</g>
<g>
</g>
<g>
</g>
<g>
</g>
<g>
</g>
<g>
</g>
<g>
</g>
<g>
</g>
<g>
</g>
<g>
</g>
<g>
</g>
<g>
</g>
<g>
</g>
<g>
</g>
</svg>
